HIERARCHY
ROOT joint_Root
{
	OFFSET 0.0 0.0 0.0
	CHANNELS 6 Xposition Yposition Zposition Zrotation Xrotation Yrotation 
	JOINT Hips
	{
		OFFSET 4.5925 91.4895 -427.239
		CHANNELS 6 Xposition Yposition Zposition Zrotation Xrotation Yrotation 
		JOINT Spine
		{
			OFFSET 15.7357 0.0 0.0
			CHANNELS 6 Xposition Yposition Zposition Zrotation Xrotation Yrotation 
			JOINT Chest
			{
				OFFSET 8.98455 -0.406207 0.0
				CHANNELS 6 Xposition Yposition Zposition Zrotation Xrotation Yrotation 
				JOINT Neck
				{
					OFFSET 16.3773 0.0 0.0
					CHANNELS 6 Xposition Yposition Zposition Zrotation Xrotation Yrotation 
					JOINT Head
					{
						OFFSET 6.45672 0.0 0.0
						CHANNELS 6 Xposition Yposition Zposition Zrotation Xrotation Yrotation 
						End Site
						{
							OFFSET 0.0 0.0 0.0
						}
					}
				}
				JOINT Shoulder_L
				{
					OFFSET 12.9942 -0.242716 4.98039
					CHANNELS 6 Xposition Yposition Zposition Zrotation Xrotation Yrotation 
					JOINT UpperArm_L
					{
						OFFSET 5.34809 0.0 0.0
						CHANNELS 6 Xposition Yposition Zposition Zrotation Xrotation Yrotation 
						JOINT LowerArm_L
						{
							OFFSET 24.3286 1.87007e-05 0.0
							CHANNELS 6 Xposition Yposition Zposition Zrotation Xrotation Yrotation 
							JOINT Hand_L
							{
								OFFSET 22.2916 0.0 0.0
								CHANNELS 6 Xposition Yposition Zposition Zrotation Xrotation Yrotation 
								End Site
								{
									OFFSET 0.0 0.0 0.0
								}
							}
						}
					}
				}
				JOINT Shoulder_R
				{
					OFFSET 12.9945 -0.242716 -4.98039
					CHANNELS 6 Xposition Yposition Zposition Zrotation Xrotation Yrotation 
					JOINT UpperArm_R
					{
						OFFSET -5.34813 0.0 0.0
						CHANNELS 6 Xposition Yposition Zposition Zrotation Xrotation Yrotation 
						JOINT LowerArm_R
						{
							OFFSET -24.3289 0.000322201 0.0
							CHANNELS 6 Xposition Yposition Zposition Zrotation Xrotation Yrotation 
							JOINT Hand_R
							{
								OFFSET -22.2915 -0.000108084 0.0
								CHANNELS 6 Xposition Yposition Zposition Zrotation Xrotation Yrotation 
								End Site
								{
									OFFSET 0.0 0.0 0.0
								}
							}
						}
					}
				}
			}
		}
		JOINT UpperLeg_L
		{
			OFFSET -2.19248 -6.46944 0.0
			CHANNELS 6 Xposition Yposition Zposition Zrotation Xrotation Yrotation 
			JOINT LowerLeg_L
			{
				OFFSET 39.0811 0.0 -1.23785e-05
				CHANNELS 6 Xposition Yposition Zposition Zrotation Xrotation Yrotation 
				JOINT Foot_L
				{
					OFFSET 40.9854 0.0 -1.26872e-05
					CHANNELS 6 Xposition Yposition Zposition Zrotation Xrotation Yrotation 
					JOINT Toes_L
					{
						OFFSET 11.7543 0.0 0.0
						CHANNELS 6 Xposition Yposition Zposition Zrotation Xrotation Yrotation 
						End Site
						{
							OFFSET 0.0 0.0 0.0
						}
					}
				}
			}
		}
		JOINT UpperLeg_R
		{
			OFFSET -2.19251 6.46944 0.0
			CHANNELS 6 Xposition Yposition Zposition Zrotation Xrotation Yrotation 
			JOINT LowerLeg_R
			{
				OFFSET -39.0811 -0.00228153 -0.0401928
				CHANNELS 6 Xposition Yposition Zposition Zrotation Xrotation Yrotation 
				JOINT Foot_R
				{
					OFFSET -40.9854 0.0 0.0
					CHANNELS 6 Xposition Yposition Zposition Zrotation Xrotation Yrotation 
					JOINT Toes_R
					{
						OFFSET -11.7543 0.0 0.0
						CHANNELS 6 Xposition Yposition Zposition Zrotation Xrotation Yrotation 
						End Site
						{
							OFFSET 0.0 0.0 0.0
						}
					}
				}
			}
		}
	}
}
MOTION
Frames:	7
Frame Time:	0.0333333
0.000000 0.000000 0.000000 0.000000 0.000000 -0.000000 -1.647050 84.072500 -2.107990 90.622200 -6.236630 10.037300 15.735700 0.000005 -0.000001 88.473400 80.390000 -89.269100 8.984550 -0.406207 -0.000000 11.444300 -0.533437 -1.537380 16.377300 -0.000001 -0.000001 -0.424139 -2.748980 0.283774 6.456720 -0.000001 -0.000000 -1.165870 -3.487590 3.988540 12.994200 -0.242716 4.980390 -91.781600 5.858640 -73.051400 5.348090 -0.000007 -0.000001 -65.960600 21.134500 -14.447800 24.328600 0.000019 0.000005 11.324200 21.097500 -29.090400 22.291600 -0.000001 0.000005 6.496050 5.342710 -1.213440 12.994500 -0.242716 -4.980390 88.399500 8.629260 -79.450800 -5.348130 -0.000001 -0.000004 -60.847100 35.561800 -10.006600 -24.328900 0.000322 -0.000009 1.909730 3.082460 -31.831700 -22.291500 -0.000108 -0.000004 19.099400 5.469780 -5.355830 -2.192480 -6.469440 -0.000000 -173.546000 -17.157500 -13.189400 39.081100 -0.000007 -0.000012 -0.380610 0.253007 56.387200 40.985400 -0.000006 -0.000013 1.580170 7.574490 -82.371600 11.754300 -0.000000 0.000003 -0.000661 -0.005025 -16.759000 -2.192510 6.469440 -0.000001 175.937000 12.936000 165.302000 -39.081100 -0.002282 -0.040193 0.064638 -0.038762 57.746000 -40.985400 0.000008 0.000006 8.457240 6.657390 -83.331800 -11.754300 -0.000006 -0.000006 -0.748897 -0.925372 -16.702700
0.000000 0.000000 0.000000 0.000000 0.000000 -0.000000 -1.745610 85.625600 -1.377090 90.933900 -6.136300 10.004200 15.735700 0.000005 -0.000001 88.492200 81.045600 -88.621000 8.984550 -0.406207 -0.000000 10.136200 -0.470856 -0.215653 16.377300 -0.000001 -0.000001 1.195730 -2.842630 0.512575 6.456720 -0.000001 -0.000000 -0.348867 -3.506250 3.298870 12.994200 -0.242716 4.980390 -91.530900 4.752490 -72.120300 5.348090 -0.000007 -0.000001 -62.256000 17.241800 -18.971000 24.328600 0.000019 0.000005 12.636800 18.294400 -35.545100 22.291600 -0.000001 0.000005 4.499730 5.356640 -1.588500 12.994500 -0.242716 -4.980390 88.283500 8.558020 -78.613800 -5.348130 -0.000001 -0.000004 -63.098800 32.885000 -7.187200 -24.328900 0.000322 -0.000009 1.797470 3.176270 -29.526500 -22.291500 -0.000108 -0.000004 19.062700 5.444020 -4.427010 -2.192480 -6.469440 -0.000000 -174.029000 -16.245500 -10.164100 39.081100 -0.000007 -0.000012 -0.362131 0.291495 51.168800 40.985400 -0.000006 -0.000013 0.867283 6.967800 -80.273500 11.754300 -0.000000 0.000003 -0.000642 -0.004902 -16.754800 -2.192510 6.469440 -0.000001 175.408000 13.305500 168.242000 -39.081100 -0.002282 -0.040193 0.054714 -0.038872 52.942800 -40.985400 0.000008 0.000006 8.337710 7.329400 -81.455900 -11.754300 -0.000006 -0.000006 -0.704361 -0.868097 -16.837000
0.000000 0.000000 0.000000 0.000000 0.000000 -0.000000 -1.964080 87.659800 -0.717287 91.066000 -5.392160 9.592960 15.735700 0.000005 -0.000001 88.609800 82.025600 -87.928800 8.984550 -0.406207 -0.000000 8.180920 -0.382738 1.388090 16.377300 -0.000001 -0.000001 3.757910 -3.719190 0.763735 6.456720 -0.000001 -0.000000 0.557401 -4.421190 2.636920 12.994200 -0.242716 4.980390 -91.058000 3.145260 -71.395300 5.348090 -0.000007 -0.000001 -55.122800 11.013200 -28.337000 24.328600 0.000019 0.000005 10.849700 12.370800 -41.844600 22.291600 -0.000001 0.000005 7.546070 5.341100 -1.115150 12.994500 -0.242716 -4.980390 88.208400 8.033610 -77.383400 -5.348130 -0.000001 -0.000004 -64.877800 31.417100 -3.943330 -24.328900 0.000322 -0.000009 0.433893 0.837915 -27.423700 -22.291500 -0.000108 -0.000004 19.001800 5.458600 -4.951670 -2.192480 -6.469440 -0.000000 -174.390000 -15.228200 -6.553060 39.081100 -0.000007 -0.000012 -0.314765 0.329437 43.695900 40.985400 -0.000006 -0.000013 0.211695 6.802610 -76.895000 11.754300 -0.000000 0.000003 -0.000493 -0.003936 -16.721500 -2.192510 6.469440 -0.000001 175.226000 14.096100 171.905000 -39.081100 -0.002282 -0.040193 0.042865 -0.038334 45.933500 -40.985400 0.000008 0.000006 7.913480 7.845770 -78.309400 -11.754300 -0.000006 -0.000006 -0.630779 -0.775009 -17.073500
0.000000 0.000000 0.000000 0.000000 0.000000 -0.000000 -2.300420 89.445700 -0.269364 90.733600 -3.755470 8.496330 15.735700 0.000005 -0.000001 87.628200 83.239500 -85.983700 8.984550 -0.406207 -0.000000 5.754180 -0.586965 3.314910 16.377300 -0.000001 -0.000001 6.162040 -5.321680 1.184430 6.456720 -0.000001 -0.000000 1.643930 -5.767300 2.176250 12.994200 -0.242716 4.980390 -90.314300 0.956968 -71.841000 5.348090 -0.000007 -0.000001 -48.982200 -0.318583 -39.924900 24.328600 0.000019 0.000005 4.821540 4.486870 -47.216100 22.291600 -0.000001 0.000005 11.108900 5.318930 -0.467606 12.994500 -0.242716 -4.980390 88.250800 6.939090 -75.812300 -5.348130 -0.000001 -0.000004 -65.860300 30.446000 -0.836248 -24.328900 0.000322 -0.000009 0.737333 1.468840 -26.690400 -22.291500 -0.000108 -0.000004 17.515900 5.455030 -4.816240 -2.192480 -6.469440 -0.000000 -174.147000 -14.799200 -3.853710 39.081100 -0.000007 -0.000012 -0.242513 0.330506 36.270300 40.985400 -0.000006 -0.000013 -0.042357 8.050560 -73.283000 11.754300 -0.000000 0.000003 -0.000308 -0.002662 -16.676600 -2.192510 6.469440 -0.000001 175.431000 16.641400 175.141000 -39.081100 -0.002282 -0.040193 0.032060 -0.036113 38.550900 -40.985400 0.000008 0.000006 7.752330 9.114100 -75.095100 -11.754300 -0.000006 -0.000006 -0.516919 -0.634985 -17.250800
0.000000 0.000000 0.000000 0.000000 0.000000 -0.000000 -2.682990 90.579100 -0.028594 90.330900 -2.237710 7.051280 15.735700 0.000005 -0.000001 83.690200 84.415300 -81.224700 8.984550 -0.406207 -0.000000 3.369740 -1.320620 4.964740 16.377300 -0.000001 -0.000001 7.659180 -6.454580 1.992570 6.456720 -0.000001 -0.000000 2.109100 -6.649540 1.724340 12.994200 -0.242716 4.980390 -89.381400 -2.049220 -73.177300 5.348090 -0.000007 -0.000001 -44.546500 -15.991800 -50.526500 24.328600 0.000019 0.000005 2.575680 2.000240 -52.200200 22.291600 -0.000001 0.000005 15.592800 5.347550 -1.291320 12.994500 -0.242716 -4.980390 88.254000 6.254890 -74.368600 -5.348130 -0.000001 -0.000004 -65.273100 30.663000 1.666710 -24.328900 0.000322 -0.000009 1.436390 2.743560 -27.663600 -22.291500 -0.000108 -0.000004 16.205400 5.446440 -4.512870 -2.192480 -6.469440 -0.000000 -173.670000 -15.131000 -2.600920 39.081100 -0.000007 -0.000012 -0.170479 0.285972 30.801100 40.985400 -0.000006 -0.000013 -0.187523 10.034400 -70.487000 11.754300 -0.000000 0.000003 -0.000167 -0.001591 -16.637900 -2.192510 6.469440 -0.000001 175.832000 19.850800 177.163000 -39.081100 -0.002282 -0.040193 0.022592 -0.030065 32.691900 -40.985400 0.000008 0.000006 7.983970 10.915500 -72.987700 -11.754300 -0.000006 -0.000006 -0.275395 -0.342459 -17.193700
0.000000 0.000000 0.000000 0.000000 0.000000 -0.000000 -2.853420 91.153200 0.131126 90.102300 -2.064740 5.895460 15.735700 0.000005 -0.000001 76.937500 84.918900 -73.768100 8.984550 -0.406207 -0.000000 2.210780 -2.448600 6.380640 16.377300 -0.000001 -0.000001 7.597690 -6.314610 2.597920 6.456720 -0.000001 -0.000000 1.897050 -6.608180 1.645140 12.994200 -0.242716 4.980390 -88.384100 -5.632050 -73.959100 5.348090 -0.000007 -0.000001 -45.311600 -34.989900 -61.506900 24.328600 0.000019 0.000005 2.425470 1.814110 -53.226400 22.291600 -0.000001 0.000005 17.178900 5.392730 -2.679320 12.994500 -0.242716 -4.980390 88.185900 6.449020 -74.252300 -5.348130 -0.000001 -0.000004 -62.411200 31.301200 2.430470 -24.328900 0.000322 -0.000009 1.487730 2.601670 -29.797400 -22.291500 -0.000108 -0.000004 16.546000 5.447480 -4.549100 -2.192480 -6.469440 -0.000000 -173.558000 -15.396000 -2.096350 39.081100 -0.000007 -0.000012 -0.136296 0.260682 27.602700 40.985400 -0.000006 -0.000013 -0.477820 10.570700 -68.920800 11.754300 -0.000000 0.000003 -0.000132 -0.001302 -16.627200 -2.192510 6.469440 -0.000001 175.979000 22.346300 178.220000 -39.081100 -0.002282 -0.040193 0.014300 -0.019899 28.924700 -40.985400 0.000008 0.000006 8.287700 13.292600 -72.100500 -11.754300 -0.000006 -0.000006 -0.066024 -0.085261 -16.838200
0.000000 0.000000 0.000000 0.000000 0.000000 -0.000000 -2.660420 91.444800 0.259476 90.072100 -3.768490 5.024810 15.735700 0.000005 -0.000001 73.757100 85.203900 -69.972400 8.984550 -0.406207 -0.000000 1.551910 -2.886540 7.603160 16.377300 -0.000001 -0.000001 7.501170 -5.367750 2.261510 6.456720 -0.000001 -0.000000 1.951540 -6.478540 2.349350 12.994200 -0.242716 4.980390 -86.968200 -10.046200 -73.116300 5.348090 -0.000007 -0.000001 -43.389000 -49.312400 -68.278500 24.328600 0.000019 0.000005 -3.398950 -2.931930 -49.356200 22.291600 -0.000001 0.000005 24.531200 5.448090 -4.545370 12.994500 -0.242716 -4.980390 87.965800 7.469140 -74.717200 -5.348130 -0.000001 -0.000004 -58.100700 31.466700 2.621530 -24.328900 0.000322 -0.000009 1.408720 2.223800 -32.380700 -22.291500 -0.000108 -0.000004 17.710300 5.451740 -4.701150 -2.192480 -6.469440 -0.000000 -173.905000 -16.046400 -1.708360 39.081100 -0.000007 -0.000012 -0.123907 0.257136 25.728300 40.985400 -0.000006 -0.000013 -0.770338 9.400980 -68.236700 11.754300 -0.000000 0.000003 -0.000098 -0.001012 -16.616400 -2.192510 6.469440 -0.000001 175.835000 23.087100 178.338000 -39.081100 -0.002282 -0.040193 -0.008095 0.022465 26.912500 -40.985400 0.000008 0.000006 8.157380 15.929900 -71.530700 -11.754300 -0.000006 -0.000006 -0.000309 -0.005051 -16.779000
